# xmcd
#
# Track frame offsets: 
#        150
#        15412
#        26230
#        36030
#        40217
#        53832
#        56695
#        86212
#        89304
#        103307
#        116392
#        130050
#        142210
#        155257
#        156052
#        168987
#        188059
#        205812
#        217995
#        233145
#        234197
#        250172
#        253565
#
# Disc length: 3665 seconds
#
# Revision: 0
# Processed by: cddbd v1.5.2PL0 Copyright (c) Steve Scherf et al.
# Submitted via: ExactAudioCopy v0.95b4
#
DISCID=320e4f17
DTITLE=Andy Wilkinson - The Road Is Still The Road
DYEAR=1996
DGENRE=Cowboy
TTITLE0=The Road Is Still The Road
TTITLE1=The Name Of The River (Story/Intro)
TTITLE2=The River That Never Runs Dry
TTITLE3=About Buffalo Songs (Story/Intro)
TTITLE4=The Prairie Without Buffalo
TTITLE5=The Story Of Rayado (Story/Intro)
TTITLE6=Rayado
TTITLE7=A Beautiful Proverb (Story/Intro)
TTITLE8=When You Cry (I Taste Your Tears)
TTITLE9=Songwriters Are Like Exotic Dancers (Story/Intro)
TTITLE10=All For The Money
TTITLE11=How To Read The Personal Ads (Story/Intro)
TTITLE12=Fallin'
TTITLE13=Zen Cowboy Music (Story/Intro)
TTITLE14=Trust Yourself
TTITLE15=An Unlikely Story (Story/Intro)
TTITLE16=Jesus Lucero (Recounts The Tale Of Creation)
TTITLE17=A True Story, And How I Found It (Story/Intro)
TTITLE18=The Freedom Song
TTITLE19=A Song Of Many Levels (Story/Intro)
TTITLE20=No One Can Hold Love Back
TTITLE21=Gather 'Round The Campfire (Story/Intro)
TTITLE22=Passin' Through
EXTD=
EXTT0=
EXTT1=
EXTT2=
EXTT3=
EXTT4=
EXTT5=
EXTT6=
EXTT7=
EXTT8=
EXTT9=
EXTT10=
EXTT11=
EXTT12=
EXTT13=
EXTT14=
EXTT15=
EXTT16=
EXTT17=
EXTT18=
EXTT19=
EXTT20=
EXTT21=
EXTT22=
PLAYORDER=
